# Blender v2.79 (sub 0) OBJ File: ''
# www.blender.org
mtllib edvin.mtl
o Text
v -1.077034 -0.000090 -0.063560
v -0.988034 -0.000090 -0.063560
v -0.988034 -0.000090 0.385440
v -1.077034 -0.000090 0.385440
v -1.077034 -0.000090 0.063440
v -1.087316 -0.000090 0.052288
v -1.097205 -0.000090 0.042306
v -1.106768 -0.000090 0.033456
v -1.116071 -0.000090 0.025699
v -1.125179 -0.000090 0.018998
v -1.134159 -0.000090 0.013315
v -1.143076 -0.000090 0.008611
v -1.151997 -0.000090 0.004847
v -1.160987 -0.000090 0.001987
v -1.170113 -0.000090 -0.000009
v -1.179440 -0.000090 -0.001179
v -1.189034 -0.000090 -0.001560
v -1.202109 -0.000090 -0.000676
v -1.214303 -0.000090 0.001931
v -1.225565 -0.000090 0.006190
v -1.235849 -0.000090 0.012033
v -1.245105 -0.000090 0.019389
v -1.253284 -0.000090 0.028190
v -1.260339 -0.000090 0.038366
v -1.266219 -0.000090 0.049847
v -1.270878 -0.000090 0.062565
v -1.274266 -0.000090 0.076449
v -1.276334 -0.000090 0.091431
v -1.277034 -0.000090 0.107440
v -1.277034 -0.000090 0.385440
v -1.366034 -0.000090 0.385440
v -1.366034 -0.000090 0.108440
v -1.364647 -0.000090 0.079040
v -1.360604 -0.000090 0.052324
v -1.354081 -0.000090 0.028268
v -1.345256 -0.000090 0.006847
v -1.334307 -0.000090 -0.011962
v -1.321409 -0.000090 -0.028185
v -1.306741 -0.000090 -0.041845
v -1.290479 -0.000090 -0.052967
v -1.272800 -0.000090 -0.061576
v -1.253882 -0.000090 -0.067694
v -1.233901 -0.000090 -0.071348
v -1.213034 -0.000090 -0.072560
v -1.200543 -0.000090 -0.072043
v -1.188108 -0.000090 -0.070509
v -1.175784 -0.000090 -0.067982
v -1.163627 -0.000090 -0.064486
v -1.151691 -0.000090 -0.060046
v -1.140034 -0.000090 -0.054685
v -1.128710 -0.000090 -0.048429
v -1.117775 -0.000090 -0.041301
v -1.107284 -0.000090 -0.033326
v -1.097293 -0.000090 -0.024528
v -1.087858 -0.000090 -0.014931
v -1.079034 -0.000090 -0.004560
v -1.077034 -0.000090 -0.004560
v -0.862034 -0.000090 -0.063560
v -0.773034 -0.000090 -0.063560
v -0.773034 -0.000090 0.385440
v -0.862034 -0.000090 0.385440
v -0.871034 -0.000090 -0.199560
v -0.870545 -0.000090 -0.206695
v -0.869122 -0.000090 -0.213556
v -0.866831 -0.000090 -0.220076
v -0.863738 -0.000090 -0.226190
v -0.859909 -0.000090 -0.231832
v -0.855409 -0.000090 -0.236935
v -0.850306 -0.000090 -0.241435
v -0.844664 -0.000090 -0.245264
v -0.838550 -0.000090 -0.248357
v -0.832029 -0.000090 -0.250648
v -0.825169 -0.000090 -0.252071
v -0.818034 -0.000090 -0.252560
v -0.810899 -0.000090 -0.252071
v -0.804039 -0.000090 -0.250648
v -0.797518 -0.000090 -0.248357
v -0.791404 -0.000090 -0.245264
v -0.785763 -0.000090 -0.241434
v -0.780659 -0.000090 -0.236935
v -0.776160 -0.000090 -0.231831
v -0.772330 -0.000090 -0.226190
v -0.769237 -0.000090 -0.220076
v -0.766946 -0.000090 -0.213555
v -0.765523 -0.000090 -0.206695
v -0.765034 -0.000090 -0.199560
v -0.765523 -0.000090 -0.192425
v -0.766946 -0.000090 -0.185565
v -0.769237 -0.000090 -0.179044
v -0.772330 -0.000090 -0.172930
v -0.776160 -0.000090 -0.167289
v -0.780659 -0.000090 -0.162185
v -0.785763 -0.000090 -0.157686
v -0.791404 -0.000090 -0.153856
v -0.797518 -0.000090 -0.150763
v -0.804039 -0.000090 -0.148472
v -0.810899 -0.000090 -0.147049
v -0.818034 -0.000090 -0.146560
v -0.825169 -0.000090 -0.147049
v -0.832029 -0.000090 -0.148472
v -0.838550 -0.000090 -0.150763
v -0.844664 -0.000090 -0.153856
v -0.850305 -0.000090 -0.157686
v -0.855409 -0.000090 -0.162185
v -0.859908 -0.000090 -0.167289
v -0.863738 -0.000090 -0.172931
v -0.866831 -0.000090 -0.179045
v -0.869122 -0.000090 -0.185565
v -0.870545 -0.000090 -0.192425
v -0.476034 -0.000090 0.394440
v -0.506034 -0.000090 0.394440
v -0.704034 -0.000090 -0.063560
v -0.609034 -0.000090 -0.063560
v -0.491034 -0.000090 0.212440
v -0.370034 -0.000090 -0.063560
v -0.273034 -0.000090 -0.063560
v -0.211034 -0.000090 -0.296560
v -0.122034 -0.000090 -0.296560
v -0.122034 -0.000090 -0.054560
v -0.113195 -0.000090 -0.057645
v -0.104654 -0.000090 -0.060407
v -0.096378 -0.000090 -0.062857
v -0.088330 -0.000090 -0.065005
v -0.080477 -0.000090 -0.066861
v -0.072784 -0.000090 -0.068435
v -0.065216 -0.000090 -0.069739
v -0.057738 -0.000090 -0.070782
v -0.050315 -0.000090 -0.071576
v -0.042914 -0.000090 -0.072130
v -0.035498 -0.000090 -0.072454
v -0.028034 -0.000090 -0.072560
v 0.003892 -0.000090 -0.070655
v 0.034045 -0.000090 -0.065069
v 0.062231 -0.000090 -0.055998
v 0.088262 -0.000090 -0.043634
v 0.111946 -0.000090 -0.028174
v 0.133091 -0.000090 -0.009810
v 0.151507 -0.000090 0.011262
v 0.167003 -0.000090 0.034847
v 0.179388 -0.000090 0.060752
v 0.188470 -0.000090 0.088782
v 0.194060 -0.000090 0.118743
v 0.195966 -0.000090 0.150440
v 0.194236 -0.000090 0.185314
v 0.189123 -0.000090 0.217847
v 0.180747 -0.000090 0.247909
v 0.169225 -0.000090 0.275366
v 0.154675 -0.000090 0.300087
v 0.137216 -0.000090 0.321940
v 0.116965 -0.000090 0.340793
v 0.094040 -0.000090 0.356514
v 0.068560 -0.000090 0.368971
v 0.040642 -0.000090 0.378032
v 0.010404 -0.000090 0.383566
v -0.022034 -0.000090 0.385440
v -0.211034 -0.000090 0.385440
v -0.122034 -0.000090 0.310440
v -0.032034 -0.000090 0.310440
v -0.007701 -0.000090 0.309152
v 0.013878 -0.000090 0.305384
v 0.032825 -0.000090 0.299284
v 0.049262 -0.000090 0.290995
v 0.063310 -0.000090 0.280666
v 0.075091 -0.000090 0.268440
v 0.084726 -0.000090 0.254464
v 0.092336 -0.000090 0.238884
v 0.098044 -0.000090 0.221846
v 0.101971 -0.000090 0.203495
v 0.104237 -0.000090 0.183978
v 0.104966 -0.000090 0.163440
v 0.103775 -0.000090 0.140624
v 0.100271 -0.000090 0.119245
v 0.094560 -0.000090 0.099409
v 0.086744 -0.000090 0.081218
v 0.076928 -0.000090 0.064777
v 0.065216 -0.000090 0.050190
v 0.051712 -0.000090 0.037561
v 0.036521 -0.000090 0.026995
v 0.019747 -0.000090 0.018596
v 0.001494 -0.000090 0.012468
v -0.018135 -0.000090 0.008714
v -0.039034 -0.000090 0.007440
v -0.046396 -0.000090 0.007545
v -0.053516 -0.000090 0.007866
v -0.060440 -0.000090 0.008409
v -0.067219 -0.000090 0.009181
v -0.073901 -0.000090 0.010189
v -0.080534 -0.000090 0.011440
v -0.087167 -0.000090 0.012941
v -0.093849 -0.000090 0.014699
v -0.100628 -0.000090 0.016721
v -0.107553 -0.000090 0.019014
v -0.114672 -0.000090 0.021585
v -0.122034 -0.000090 0.024440
v 0.277966 -0.000090 -0.296560
v 0.664966 -0.000090 -0.296560
v 0.664966 -0.000090 0.385440
v 0.268966 -0.000090 0.385440
v 0.268966 -0.000090 0.297440
v 0.566966 -0.000090 0.297440
v 0.566966 -0.000090 0.085440
v 0.287966 -0.000090 0.085440
v 0.287966 -0.000090 -0.002560
v 0.566966 -0.000090 -0.002560
v 0.566966 -0.000090 -0.208560
v 0.277966 -0.000090 -0.208560
vn -0.0000 -1.0000 0.0000
usemtl None
s off
f 45//1 43//1 44//1
f 46//1 43//1 45//1
f 46//1 42//1 43//1
f 47//1 42//1 46//1
f 48//1 42//1 47//1
f 48//1 41//1 42//1
f 49//1 41//1 48//1
f 3//1 1//1 2//1
f 3//1 57//1 1//1
f 49//1 40//1 41//1
f 50//1 40//1 49//1
f 51//1 40//1 50//1
f 51//1 39//1 40//1
f 52//1 39//1 51//1
f 52//1 38//1 39//1
f 53//1 38//1 52//1
f 54//1 38//1 53//1
f 54//1 37//1 38//1
f 55//1 37//1 54//1
f 56//1 37//1 55//1
f 56//1 17//1 37//1
f 17//1 36//1 37//1
f 3//1 56//1 57//1
f 3//1 5//1 56//1
f 5//1 6//1 56//1
f 6//1 7//1 56//1
f 7//1 8//1 56//1
f 8//1 9//1 56//1
f 9//1 10//1 56//1
f 10//1 11//1 56//1
f 11//1 12//1 56//1
f 12//1 13//1 56//1
f 13//1 14//1 56//1
f 14//1 15//1 56//1
f 15//1 16//1 56//1
f 16//1 17//1 56//1
f 18//1 36//1 17//1
f 19//1 36//1 18//1
f 20//1 36//1 19//1
f 21//1 36//1 20//1
f 21//1 35//1 36//1
f 22//1 35//1 21//1
f 23//1 35//1 22//1
f 24//1 35//1 23//1
f 24//1 34//1 35//1
f 25//1 34//1 24//1
f 26//1 34//1 25//1
f 26//1 33//1 34//1
f 27//1 33//1 26//1
f 3//1 4//1 5//1
f 28//1 33//1 27//1
f 28//1 32//1 33//1
f 29//1 32//1 28//1
f 30//1 32//1 29//1
f 30//1 31//1 32//1
f 75//1 73//1 74//1
f 75//1 72//1 73//1
f 76//1 72//1 75//1
f 76//1 71//1 72//1
f 77//1 71//1 76//1
f 77//1 70//1 71//1
f 78//1 70//1 77//1
f 78//1 69//1 70//1
f 79//1 69//1 78//1
f 79//1 68//1 69//1
f 80//1 68//1 79//1
f 80//1 67//1 68//1
f 81//1 67//1 80//1
f 81//1 66//1 67//1
f 82//1 66//1 81//1
f 82//1 65//1 66//1
f 83//1 65//1 82//1
f 83//1 64//1 65//1
f 84//1 64//1 83//1
f 84//1 63//1 64//1
f 85//1 63//1 84//1
f 85//1 62//1 63//1
f 86//1 62//1 85//1
f 87//1 62//1 86//1
f 87//1 109//1 62//1
f 87//1 108//1 109//1
f 88//1 108//1 87//1
f 88//1 107//1 108//1
f 89//1 107//1 88//1
f 89//1 106//1 107//1
f 90//1 106//1 89//1
f 90//1 105//1 106//1
f 91//1 105//1 90//1
f 91//1 104//1 105//1
f 92//1 104//1 91//1
f 92//1 103//1 104//1
f 93//1 103//1 92//1
f 93//1 102//1 103//1
f 94//1 102//1 93//1
f 94//1 101//1 102//1
f 95//1 101//1 94//1
f 95//1 100//1 101//1
f 96//1 100//1 95//1
f 96//1 99//1 100//1
f 97//1 99//1 96//1
f 97//1 98//1 99//1
f 60//1 58//1 59//1
f 60//1 61//1 58//1
f 110//1 115//1 116//1
f 110//1 114//1 115//1
f 114//1 112//1 113//1
f 114//1 111//1 112//1
f 110//1 111//1 114//1
f 119//1 117//1 118//1
f 119//1 156//1 117//1
f 132//1 130//1 131//1
f 132//1 129//1 130//1
f 132//1 128//1 129//1
f 132//1 127//1 128//1
f 132//1 126//1 127//1
f 133//1 126//1 132//1
f 133//1 125//1 126//1
f 133//1 124//1 125//1
f 133//1 123//1 124//1
f 134//1 123//1 133//1
f 134//1 122//1 123//1
f 134//1 121//1 122//1
f 134//1 120//1 121//1
f 134//1 119//1 120//1
f 135//1 119//1 134//1
f 135//1 191//1 119//1
f 191//1 192//1 119//1
f 192//1 193//1 119//1
f 193//1 194//1 119//1
f 194//1 156//1 119//1
f 136//1 188//1 135//1
f 188//1 189//1 135//1
f 189//1 190//1 135//1
f 190//1 191//1 135//1
f 137//1 185//1 136//1
f 185//1 186//1 136//1
f 186//1 187//1 136//1
f 187//1 188//1 136//1
f 138//1 182//1 137//1
f 182//1 183//1 137//1
f 183//1 184//1 137//1
f 184//1 185//1 137//1
f 138//1 181//1 182//1
f 138//1 180//1 181//1
f 139//1 180//1 138//1
f 139//1 179//1 180//1
f 139//1 178//1 179//1
f 157//1 156//1 194//1
f 139//1 177//1 178//1
f 140//1 177//1 139//1
f 140//1 176//1 177//1
f 140//1 175//1 176//1
f 141//1 175//1 140//1
f 141//1 174//1 175//1
f 141//1 173//1 174//1
f 142//1 173//1 141//1
f 142//1 172//1 173//1
f 143//1 172//1 142//1
f 143//1 171//1 172//1
f 143//1 170//1 171//1
f 144//1 170//1 143//1
f 144//1 169//1 170//1
f 144//1 168//1 169//1
f 145//1 168//1 144//1
f 145//1 167//1 168//1
f 146//1 167//1 145//1
f 146//1 166//1 167//1
f 146//1 165//1 166//1
f 147//1 165//1 146//1
f 147//1 164//1 165//1
f 147//1 163//1 164//1
f 148//1 163//1 147//1
f 148//1 162//1 163//1
f 148//1 161//1 162//1
f 148//1 160//1 161//1
f 149//1 160//1 148//1
f 149//1 159//1 160//1
f 149//1 158//1 159//1
f 149//1 157//1 158//1
f 149//1 156//1 157//1
f 150//1 156//1 149//1
f 151//1 156//1 150//1
f 152//1 156//1 151//1
f 153//1 156//1 152//1
f 154//1 156//1 153//1
f 155//1 156//1 154//1
f 197//1 205//1 196//1
f 205//1 195//1 196//1
f 205//1 206//1 195//1
f 197//1 204//1 205//1
f 197//1 201//1 204//1
f 201//1 203//1 204//1
f 201//1 202//1 203//1
f 197//1 200//1 201//1
f 197//1 199//1 200//1
f 197//1 198//1 199//1
